<svg width="22" height="30" viewBox="0 0 22 30" fill="none" xmlns="http://www.w3.org/2000/svg">
<g clip-path="url('#clip0_7_479')">
<path d="M10.707 0C10.5172 0 10.4177 0.0753352 10.255 0.198885C10.2098 0.233539 10.151 0.277234 10.0727 0.334488C7.61676 2.13651 3.92081 2.24047 1.93347 2.29471C1.73759 2.30074 1.55528 2.30526 1.39105 2.31129C0.666326 2.33841 0.331838 2.66687 0.179661 2.93807C0.00186944 3.25147 0.00186944 3.59198 0.000362731 3.7969V3.8436C-0.00265068 4.11782 0.000362731 12.6729 0.000362731 18.3336V23.042C0.000362731 26.4517 2.53012 27.0634 3.36031 27.2653C3.40401 27.2759 3.44318 27.2849 3.47784 27.294C3.79575 27.3753 4.32762 27.4446 4.94386 27.526C5.75598 27.633 6.67808 27.7535 7.24159 27.9207C8.09739 28.1754 9.021 28.5475 9.98379 29.5495L10.0079 29.5751C10.2234 29.8011 10.4388 30.003 10.704 30.003C10.9692 30.003 11.1861 29.7981 11.4046 29.5706L11.4257 29.5495C12.3885 28.549 13.3121 28.1754 14.1679 27.9207C14.7329 27.7535 15.6535 27.633 16.4656 27.526C17.0819 27.4446 17.6137 27.3753 17.9317 27.294C17.9663 27.2849 18.0055 27.2759 18.0492 27.2653C18.8809 27.0634 21.4091 26.4517 21.4091 23.042V18.3336C21.4091 12.6729 21.4106 4.11933 21.4091 3.8436V3.7969C21.4091 3.59349 21.4091 3.25298 21.2313 2.93807C21.0792 2.66687 20.7447 2.33841 20.02 2.31129C19.8557 2.30526 19.6734 2.30074 19.4775 2.29471C17.4917 2.23896 13.7942 2.13651 11.3383 0.334488C11.2615 0.277234 11.2027 0.233539 11.156 0.198885C10.9918 0.0753352 10.8938 0 10.704 0L10.707 0Z" fill="#001635"></path>
<path d="M10.7068 0.376675C10.6224 0.376675 10.6133 0.403795 10.2954 0.637335C7.50651 2.68495 3.31637 2.61714 1.40436 2.68796C0.328571 2.72713 0.381306 3.51213 0.378292 3.84511C0.375279 4.21727 0.378292 19.7574 0.378292 23.039C0.378292 26.3206 2.8734 26.747 3.57251 26.9263C4.27915 27.1071 6.32978 27.2533 7.35132 27.5561C8.26589 27.8273 9.24676 28.2326 10.2578 29.2843C10.3693 29.4003 10.5711 29.6233 10.7068 29.6233C10.8424 29.6233 11.0443 29.4018 11.1558 29.2843C12.1668 28.2326 13.1476 27.8273 14.0622 27.5561C15.0837 27.2533 17.1344 27.1071 17.841 26.9263C18.5401 26.747 21.0352 26.3221 21.0352 23.039C21.0352 19.7559 21.0382 4.21727 21.0352 3.84511C21.0322 3.51062 21.0849 2.72713 20.0091 2.68796C18.0971 2.61714 13.907 2.68645 11.1181 0.637335C10.8002 0.403795 10.7911 0.376675 10.7068 0.376675Z" fill="white"></path>
<path d="M17.9568 13.9988L11.9526 14.2308L6.37174 20.2049L6.39735 17.6721L1.67233 19.6625L4.633 14.2911L0.830078 14.7371C0.830078 15.9907 0.830078 17.2171 0.830078 18.3321V23.0405C0.830078 25.7978 2.74058 26.2604 3.55721 26.4577C3.60392 26.4698 3.64762 26.4788 3.68528 26.4894C3.95498 26.5587 4.48836 26.628 5.05337 26.7018C5.89713 26.8118 6.85238 26.9369 7.48067 27.1237C8.39826 27.3964 9.4861 27.8288 10.5845 28.9724L10.6101 28.9995C10.6327 29.0237 10.6689 29.0613 10.7065 29.099C10.7472 29.0598 10.7864 29.0191 10.8075 28.995L10.8301 28.9724C11.9285 27.8303 13.0163 27.3964 13.9339 27.1237C14.5607 26.9369 15.5174 26.8118 16.3612 26.7018C16.9262 26.628 17.4611 26.5587 17.7293 26.4894C17.7669 26.4803 17.8091 26.4698 17.8573 26.4577C18.6725 26.2604 20.5845 25.7978 20.5845 23.0405V18.3321C20.5845 16.0208 20.5845 13.2289 20.5845 10.7142L17.9568 13.9973V13.9988Z" fill="#E30613"></path>
<path d="M3.78781 10.4008L2.01442 9.09296L6.01472 6.59183L10.119 2.21636L10.6252 4.04249L11.594 2.55537L11.9587 5.73753L14.3815 6.82688L15.9725 8.59123L20.583 10.0316C20.583 6.69429 20.583 3.99729 20.583 3.84662V3.79388C20.583 3.38858 20.5559 3.15805 19.9924 3.13696C19.8297 3.13093 19.6504 3.12641 19.4575 3.12038C17.3813 3.06313 13.5151 2.95465 10.8512 0.998944C10.794 0.956756 10.7473 0.922102 10.7081 0.891968C10.6689 0.922102 10.6207 0.956756 10.565 0.998944C7.90111 2.95465 4.03491 3.06162 1.95867 3.12038C1.76581 3.12641 1.58651 3.13093 1.42379 3.13696C0.860282 3.15805 0.833161 3.38858 0.833161 3.79388V3.84662C0.831655 4.05755 0.831655 9.24665 0.833161 14.2052L3.79082 10.3978L3.78781 10.4008Z" fill="#00305B"></path>
<path d="M10.8594 12.1712L2.86035 18.7148L6.80038 17.0559L6.79134 19.093L11.762 13.824L17.7556 13.592L20.2568 10.5183L17.3413 11.9406L10.8594 12.1712Z" fill="#009FE3"></path>
<path d="M13.4792 8.64547L13.4611 8.64698V8.64547L11.751 8.81422L12.4456 9.04023L13.7474 9.43348L13.5289 8.8323L13.4792 8.64547Z" fill="#E30613"></path>
<path d="M11.2613 8.68615L11.2477 8.68163L12.0779 8.57315L13.5861 8.42248L13.9613 9.45457L15.6684 8.79162L14.1466 7.10411L11.5988 5.95751L11.3306 3.62965L10.4808 4.93446L9.92935 2.9441L6.26654 6.84948L2.69113 9.08392L4.3229 10.2863L1.36523 14.053L8.11226 8.68615H11.2613Z" fill="#001635"></path>
<path d="M11.4266 17.9042C11.4086 17.865 11.4327 17.8258 11.4779 17.8258H11.8771C11.9012 17.8258 11.9223 17.8439 11.9284 17.859L12.4241 18.9543H12.4422L12.9379 17.859C12.9439 17.8439 12.965 17.8258 12.9891 17.8258H13.3884C13.4336 17.8258 13.4577 17.865 13.4396 17.9042L12.4964 19.9247C12.4874 19.9427 12.4693 19.9578 12.4452 19.9578H12.415C12.3909 19.9578 12.3728 19.9427 12.3638 19.9247L11.4266 17.9042ZM14.2834 17.8831C14.2834 17.8529 14.3075 17.8258 14.3406 17.8258H15.5836C15.6168 17.8258 15.6409 17.8529 15.6409 17.8831V18.21C15.6409 18.2402 15.6168 18.2673 15.5836 18.2673H14.7519V18.6394H15.436C15.4661 18.6394 15.4932 18.6666 15.4932 18.6967V19.0237C15.4932 19.0568 15.4661 19.0809 15.436 19.0809H14.7519V19.4862H15.5836C15.6168 19.4862 15.6409 19.5133 15.6409 19.5435V19.8704C15.6409 19.9006 15.6168 19.9277 15.5836 19.9277H14.3406C14.3075 19.9277 14.2834 19.9006 14.2834 19.8704V17.8831ZM16.6428 17.8831C16.6428 17.8529 16.667 17.8258 16.7001 17.8258H17.5981C17.9582 17.8258 18.252 18.1166 18.252 18.4737C18.252 18.7494 18.0682 18.9724 17.8075 19.0779L18.2189 19.8403C18.24 19.8795 18.2189 19.9277 18.1676 19.9277H17.7684C17.7443 19.9277 17.7262 19.9126 17.7201 19.9006L17.3209 19.105H17.1129V19.8704C17.1129 19.9006 17.0858 19.9277 17.0557 19.9277H16.6986C16.6655 19.9277 16.6413 19.9006 16.6413 19.8704V17.8831H16.6428ZM17.5589 18.7238C17.6825 18.7238 17.7864 18.6093 17.7864 18.4843C17.7864 18.3592 17.681 18.2567 17.5589 18.2567H17.1144V18.7253H17.5589V18.7238ZM3.02073 24.2685L3.2829 23.8059C3.3281 23.7336 3.43357 23.7442 3.47274 23.7728C3.49534 23.7833 3.89613 24.0802 4.26527 24.0802C4.48826 24.0802 4.65099 23.94 4.65099 23.7457C4.65099 23.5106 4.45511 23.3328 4.07693 23.1822C3.5978 22.9923 2.99512 22.6187 2.99512 21.9497C2.99512 21.3967 3.42453 20.8392 4.28335 20.8392C4.86343 20.8392 5.30942 21.1345 5.47817 21.2581C5.54446 21.2973 5.53392 21.3982 5.51131 21.4359L5.22655 21.8653C5.18737 21.9271 5.08642 21.9768 5.0367 21.9376C4.98698 21.909 4.57866 21.6031 4.23815 21.6031C4.03776 21.6031 3.88709 21.7372 3.88709 21.8879C3.88709 22.0943 4.05433 22.251 4.4958 22.4288C4.93123 22.6021 5.62281 22.9426 5.62281 23.7005C5.62281 24.2745 5.1256 24.8561 4.30595 24.8561C3.58123 24.8561 3.17894 24.5548 3.05087 24.4267C2.99512 24.371 2.97854 24.3484 3.02224 24.27L3.02073 24.2685ZM7.4173 20.9989C7.4173 20.9432 7.4625 20.8935 7.52277 20.8935H9.83254C9.89432 20.8935 9.93801 20.9432 9.93801 20.9989V21.6077C9.93801 21.6634 9.89281 21.7131 9.83254 21.7131H8.28666V22.4047H9.55832C9.61407 22.4047 9.66379 22.4544 9.66379 22.5102V23.1189C9.66379 23.1807 9.61407 23.2243 9.55832 23.2243H8.28666V23.9777H9.83254C9.89432 23.9777 9.93801 24.0274 9.93801 24.0832V24.6919C9.93801 24.7476 9.89281 24.7973 9.83254 24.7973H7.52277C7.46099 24.7973 7.4173 24.7476 7.4173 24.6919V20.9974V20.9989ZM11.8033 20.9989C11.8033 20.9432 11.8485 20.8935 11.9088 20.8935H12.5732C12.629 20.8935 12.6787 20.9432 12.6787 20.9989V23.9792H14.0061C14.0679 23.9792 14.1116 24.0289 14.1116 24.0847V24.6934C14.1116 24.7491 14.0664 24.7989 14.0061 24.7989H11.9088C11.847 24.7989 11.8033 24.7491 11.8033 24.6934V20.9989ZM15.7705 20.9989C15.7705 20.9432 15.8157 20.8935 15.8759 20.8935H17.1762C17.8347 20.8935 18.3756 21.3455 18.3756 21.9316C18.3756 22.361 17.9898 22.6744 17.7277 22.813C18.023 22.9351 18.475 23.2093 18.475 23.7231C18.475 24.3484 17.922 24.8004 17.2591 24.8004H15.8759C15.8142 24.8004 15.7705 24.7506 15.7705 24.6949V21.0005V20.9989ZM17.0753 22.477C17.2877 22.477 17.4655 22.2992 17.4655 22.0747C17.4655 21.8502 17.2862 21.695 17.0753 21.695H16.6398V22.4755H17.0753V22.477ZM17.1476 24.0003C17.3646 24.0003 17.5499 23.8225 17.5499 23.5935C17.5499 23.3645 17.3103 23.2033 17.0918 23.2033H16.6398V24.0018H17.1476V24.0003Z" fill="white"></path>
</g>
<defs>
<clipPath id="clip0_7_479">
<rect width="21.4133" height="30" fill="white"></rect>
</clipPath>
</defs>
</svg>
