<svg width="22" height="30" viewBox="0 0 22 30" fill="none" xmlns="http://www.w3.org/2000/svg">
<g clip-path="url(#clip0_7_448)">
<path d="M10.8615 0C10.6689 0 10.568 0.0753352 10.4029 0.198885C10.357 0.233539 10.2974 0.277234 10.2179 0.334488C7.72636 2.13651 3.97676 2.24047 1.96057 2.29471C1.76186 2.30074 1.5769 2.30526 1.41028 2.31129C0.675037 2.33841 0.335693 2.66687 0.181306 2.93807C0.000934197 3.25147 0.000934187 3.59198 -0.00059439 3.7969V3.8436C-0.00365154 4.11782 -0.00059439 12.6729 -0.00059439 18.3336V23.042C-0.00059439 26.4517 2.56589 27.0634 3.40813 27.2653C3.45246 27.2759 3.4922 27.2849 3.52736 27.294C3.84989 27.3753 4.38948 27.4446 5.01467 27.526C5.83857 27.633 6.77406 27.7535 7.34575 27.9207C8.21398 28.1754 9.151 28.5475 10.1278 29.5495L10.1522 29.5751C10.3708 29.8011 10.5894 30.003 10.8584 30.003C11.1274 30.003 11.3476 29.7981 11.5692 29.5706L11.5906 29.5495C12.5674 28.549 13.5044 28.1754 14.3726 27.9207C14.9458 27.7535 15.8798 27.633 16.7037 27.526C17.3289 27.4446 17.8685 27.3753 18.191 27.294C18.2262 27.2849 18.2659 27.2759 18.3102 27.2653C19.154 27.0634 21.719 26.4517 21.719 23.042V18.3336C21.719 12.6729 21.7205 4.11933 21.719 3.8436V3.7969C21.719 3.59349 21.719 3.25298 21.5386 2.93807C21.3842 2.66687 21.0449 2.33841 20.3096 2.31129C20.143 2.30526 19.958 2.30074 19.7593 2.29471C17.7447 2.23896 13.9935 2.13651 11.5019 0.334488C11.424 0.277234 11.3644 0.233539 11.317 0.198885C11.1504 0.0753352 11.051 0 10.8584 0L10.8615 0Z" fill="#001635"/>
<path d="M10.8616 0.376678C10.776 0.376678 10.7668 0.403799 10.4443 0.637338C7.61489 2.68495 3.36392 2.61715 1.42416 2.68796C0.332752 2.72714 0.386252 3.51213 0.383195 3.84511C0.380138 4.21727 0.383195 19.7574 0.383195 23.039C0.383195 26.3206 2.91452 26.747 3.62378 26.9263C4.34068 27.1071 6.42107 27.2533 7.45745 27.5561C8.3853 27.8273 9.3804 28.2326 10.4061 29.2843C10.5192 29.4003 10.724 29.6233 10.8616 29.6233C10.9992 29.6233 11.204 29.4018 11.3171 29.2843C12.3428 28.2326 13.3379 27.8273 14.2657 27.5561C15.3021 27.2533 17.3825 27.1071 18.0994 26.9263C18.8087 26.747 21.34 26.3221 21.34 23.039C21.34 19.7559 21.343 4.21727 21.34 3.84511C21.3369 3.51062 21.3904 2.72714 20.299 2.68796C18.3593 2.61715 14.1083 2.68646 11.2789 0.637338C10.9564 0.403799 10.9472 0.376678 10.8616 0.376678Z" fill="white"/>
<path d="M18.2171 13.9988L12.1258 14.2308L6.4639 20.2049L6.48989 17.6721L1.69627 19.6625L4.69993 14.2911L0.841797 14.7371C0.841797 15.9907 0.841797 17.2171 0.841797 18.3321V23.0405C0.841797 25.7978 2.78003 26.2604 3.60852 26.4577C3.65591 26.4698 3.70024 26.4788 3.73845 26.4894C4.01207 26.5587 4.55318 26.628 5.1264 26.7018C5.9824 26.8118 6.95152 26.9369 7.58894 27.1237C8.51984 27.3964 9.62347 27.8288 10.7378 28.9724L10.7638 28.9995C10.7867 29.0236 10.8234 29.0613 10.8616 29.099C10.9029 29.0598 10.9426 29.0191 10.964 28.995L10.987 28.9724C12.1013 27.8303 13.2049 27.3964 14.1358 27.1237C14.7717 26.9369 15.7424 26.8118 16.5984 26.7018C17.1716 26.628 17.7142 26.5587 17.9863 26.4894C18.0245 26.4803 18.0673 26.4698 18.1162 26.4577C18.9432 26.2604 20.883 25.7978 20.883 23.0405V18.3321C20.883 16.0208 20.883 13.2289 20.883 10.7142L18.2171 13.9973V13.9988Z" fill="#E30613"/>
<path d="M3.84244 10.4008L2.0433 9.09296L6.10167 6.59183L10.2655 2.21636L10.7791 4.04249L11.762 2.55537L12.1319 5.73753L14.5899 6.82688L16.204 8.59123L20.8815 10.0316C20.8815 6.69429 20.8815 3.99729 20.8815 3.84662V3.79388C20.8815 3.38858 20.854 3.15805 20.2823 3.13696C20.1172 3.13093 19.9353 3.12641 19.7396 3.12038C17.6333 3.06313 13.7109 2.95465 11.0084 0.998944C10.9503 0.956756 10.9029 0.922102 10.8632 0.891968C10.8234 0.922102 10.7745 0.956756 10.718 0.998944C8.01545 2.95465 4.09312 3.06162 1.98674 3.12038C1.79109 3.12641 1.60918 3.13093 1.4441 3.13696C0.872411 3.15805 0.844896 3.38858 0.844896 3.79388V3.84662C0.843368 4.05755 0.843368 9.24665 0.844896 14.2052L3.84549 10.3978L3.84244 10.4008Z" fill="#00305B"/>
<path d="M11.0166 12.1712L2.90137 18.7148L6.8986 17.0559L6.88943 19.093L11.9322 13.824L18.0129 13.592L20.5503 10.5183L17.5925 11.9406L11.0166 12.1712Z" fill="#009FE3"/>
<path d="M13.6742 8.64548L13.6558 8.64698V8.64548L11.9209 8.81423L12.6256 9.04023L13.9463 9.43348L13.7246 8.83231L13.6742 8.64548Z" fill="#E30613"/>
<path d="M11.4245 8.68616L11.4107 8.68164L12.253 8.57316L13.7831 8.42249L14.1637 9.45458L15.8956 8.79163L14.3517 7.10412L11.7669 5.95752L11.4948 3.62966L10.6327 4.93446L10.0732 2.94411L6.35723 6.84949L2.72991 9.08393L4.38536 10.2863L1.38477 14.053L8.22973 8.68616H11.4245Z" fill="#001635"/>
<path d="M11.3758 19.9849L11.4507 19.8584C11.4675 19.8297 11.5027 19.8297 11.521 19.8433C11.5317 19.8493 11.6999 19.9699 11.8344 19.9699C11.9429 19.9699 12.0239 19.9006 12.0239 19.8132C12.0239 19.7092 11.9353 19.6369 11.7595 19.5676C11.5638 19.4892 11.3682 19.3672 11.3682 19.1261C11.3682 18.9438 11.5058 18.7344 11.8359 18.7344C12.0484 18.7344 12.2104 18.8413 12.2517 18.8715C12.2731 18.8835 12.2792 18.9182 12.2639 18.9393L12.1844 19.0553C12.1676 19.0794 12.1371 19.096 12.1111 19.0794C12.0943 19.0688 11.9368 18.9664 11.8222 18.9664C11.7075 18.9664 11.6387 19.0447 11.6387 19.1095C11.6387 19.206 11.7152 19.2707 11.8833 19.3385C12.0851 19.4184 12.3174 19.5374 12.3174 19.8011C12.3174 20.012 12.1325 20.2064 11.839 20.2064C11.5776 20.2064 11.4232 20.0859 11.3819 20.0467C11.3636 20.0286 11.3529 20.0181 11.3712 19.9849H11.3758ZM12.7959 18.7931C12.7959 18.772 12.8127 18.7539 12.8356 18.7539H13.6809C13.7038 18.7539 13.7207 18.772 13.7207 18.7931V18.9604C13.7207 18.9815 13.7038 18.9995 13.6809 18.9995H13.0664V19.3355H13.58C13.6014 19.3355 13.6198 19.3536 13.6198 19.3747V19.545C13.6198 19.5676 13.6014 19.5841 13.58 19.5841H13.0664V19.9412H13.6809C13.7038 19.9412 13.7207 19.9593 13.7207 19.9804V20.1476C13.7207 20.1687 13.7038 20.1868 13.6809 20.1868H12.8356C12.8127 20.1868 12.7959 20.1687 12.7959 20.1476V18.7946V18.7931ZM14.2266 18.7931C14.2266 18.772 14.2434 18.7539 14.2664 18.7539H14.4574C14.4788 18.7539 14.4972 18.772 14.4972 18.7931V19.9397H15.0276C15.0505 19.9397 15.0673 19.9578 15.0673 19.9789V20.1461C15.0673 20.1672 15.0505 20.1853 15.0276 20.1853H14.2664C14.2434 20.1853 14.2266 20.1672 14.2266 20.1461V18.7931ZM15.4831 18.7931C15.4831 18.772 15.4999 18.7539 15.5229 18.7539H15.9982C16.2459 18.7539 16.4369 18.9182 16.4369 19.1321C16.4369 19.2888 16.3055 19.4124 16.2077 19.4576C16.3177 19.4922 16.4782 19.6022 16.4782 19.7906C16.4782 20.0196 16.278 20.1853 16.0258 20.1853H15.5229C15.4999 20.1853 15.4831 20.1672 15.4831 20.1461V18.7931ZM15.9738 19.3551C16.0793 19.3551 16.1526 19.2738 16.1526 19.1713C16.1526 19.0688 16.0793 18.998 15.9738 18.998H15.7506V19.3551H15.9738ZM16.0028 19.9442C16.1068 19.9442 16.1893 19.8644 16.1893 19.7589C16.1893 19.6535 16.0854 19.5811 15.9768 19.5811H15.7506V19.9442H16.0028ZM16.975 18.7931C16.975 18.772 16.9918 18.7539 17.0147 18.7539H17.8601C17.883 18.7539 17.8998 18.772 17.8998 18.7931V18.9604C17.8998 18.9815 17.883 18.9995 17.8601 18.9995H17.2456V19.3355H17.7592C17.7806 19.3355 17.7989 19.3536 17.7989 19.3747V19.545C17.7989 19.5676 17.7806 19.5841 17.7592 19.5841H17.2456V19.9412H17.8601C17.883 19.9412 17.8998 19.9593 17.8998 19.9804V20.1476C17.8998 20.1687 17.883 20.1868 17.8601 20.1868H17.0147C16.9918 20.1868 16.975 20.1687 16.975 20.1476V18.7946V18.7931ZM18.4042 18.7931C18.4042 18.772 18.421 18.7539 18.444 18.7539H19.0386C19.2877 18.7539 19.491 18.9498 19.491 19.1939C19.491 19.3822 19.3642 19.5359 19.1838 19.6067L19.4681 20.1266C19.4834 20.1537 19.4681 20.1853 19.433 20.1853H19.2144C19.196 20.1853 19.1853 20.1748 19.1807 20.1672L18.9041 19.6263H18.6733V20.1476C18.6733 20.1687 18.6549 20.1868 18.6335 20.1868H18.4424C18.4195 20.1868 18.4027 20.1687 18.4027 20.1476V18.7946L18.4042 18.7931ZM19.0157 19.4064C19.1257 19.4064 19.222 19.3129 19.222 19.1984C19.222 19.0899 19.1257 18.9995 19.0157 18.9995H18.6763V19.4064H19.0157ZM1.99342 21.0472C1.97202 20.9733 2.01482 20.9206 2.08972 20.9206H2.71796C2.76076 20.9206 2.80356 20.9583 2.81426 20.9944L3.2759 22.7874H3.2973L4.13037 20.9266C4.14718 20.895 4.17928 20.8679 4.22208 20.8679H4.31838C4.3673 20.8679 4.3994 20.895 4.4101 20.9266L5.24317 22.7874H5.26457L5.7262 20.9944C5.7369 20.9567 5.7797 20.9206 5.8225 20.9206H6.45075C6.52565 20.9206 6.56845 20.9733 6.54705 21.0472L5.53055 24.6C5.51985 24.6422 5.47705 24.6738 5.43425 24.6738H5.34865C5.31043 24.6738 5.27375 24.6467 5.25693 24.615L4.27253 22.4529H4.25571L3.27742 24.615C3.26061 24.6467 3.22392 24.6738 3.18571 24.6738H3.10011C3.05731 24.6738 3.01451 24.6422 3.00381 24.6L1.9873 21.0472H1.99342ZM8.77266 20.8679C9.84725 20.8679 10.7078 21.7191 10.7078 22.7768C10.7078 23.8346 9.84725 24.6753 8.77266 24.6753C7.69807 24.6753 6.84207 23.8346 6.84207 22.7768C6.84207 21.7191 7.69654 20.8679 8.77266 20.8679ZM7.68125 20.1853C7.68125 19.9789 7.84787 19.8147 8.05728 19.8147C8.2667 19.8147 8.43943 19.9789 8.43943 20.1853C8.43943 20.3917 8.2667 20.5605 8.05728 20.5605C7.84787 20.5605 7.68125 20.3917 7.68125 20.1853ZM8.77266 23.8285C9.36422 23.8285 9.84725 23.3524 9.84725 22.7768C9.84725 22.2013 9.36269 21.7146 8.77266 21.7146C8.18263 21.7146 7.70265 22.1953 7.70265 22.7768C7.70265 23.3584 8.18721 23.8285 8.77266 23.8285ZM9.10589 20.1853C9.10589 19.9789 9.2725 19.8147 9.48192 19.8147C9.69133 19.8147 9.86406 19.9789 9.86406 20.1853C9.86406 20.3917 9.69133 20.5605 9.48192 20.5605C9.2725 20.5605 9.10589 20.3917 9.10589 20.1853ZM11.359 21.0215C11.359 20.9688 11.4018 20.9206 11.4614 20.9206H12.1019C12.1554 20.9206 12.2043 20.9688 12.2043 21.0215V23.8451H13.4837C13.5433 23.8451 13.5861 23.8933 13.5861 23.9461V24.5216C13.5861 24.5743 13.5433 24.6226 13.4837 24.6226H11.463C11.4033 24.6226 11.3605 24.5743 11.3605 24.5216V21.0215H11.359ZM14.1059 21.0215C14.1059 20.9688 14.1487 20.9206 14.2083 20.9206H16.4339C16.4935 20.9206 16.5363 20.9688 16.5363 21.0215V21.5971C16.5363 21.6498 16.4935 21.698 16.4339 21.698H14.9451V22.4589H16.171C16.2245 22.4589 16.2734 22.5071 16.2734 22.5599V23.1354C16.2734 23.1882 16.2245 23.2364 16.171 23.2364H14.9451V24.5216C14.9451 24.5743 14.8961 24.6226 14.8426 24.6226H14.2083C14.1487 24.6226 14.1059 24.5743 14.1059 24.5216V21.0215ZM17.1324 21.0215C17.1324 20.9688 17.1752 20.9206 17.2349 20.9206H19.4605C19.5201 20.9206 19.5629 20.9688 19.5629 21.0215V21.5971C19.5629 21.6498 19.5201 21.698 19.4605 21.698H17.9716V22.3535H19.1976C19.2511 22.3535 19.3 22.4017 19.3 22.4544V23.03C19.3 23.0887 19.2511 23.1309 19.1976 23.1309H17.9716V23.8451H19.4605C19.5201 23.8451 19.5629 23.8933 19.5629 23.9461V24.5216C19.5629 24.5743 19.5201 24.6226 19.4605 24.6226H17.2349C17.1752 24.6226 17.1324 24.5743 17.1324 24.5216V21.0215Z" fill="white"/>
</g>
<defs>
<clipPath id="clip0_7_448">
<rect width="21.7241" height="30" fill="white"/>
</clipPath>
</defs>
</svg>
