<svg width="26" height="30" viewBox="0 0 26 30" fill="none" xmlns="http://www.w3.org/2000/svg">
<g clip-path="url(#clip0_7_462)">
<path d="M24.1759 23.3912C24.078 23.3864 23.9766 23.3912 23.8739 23.4021H23.8715H23.869C23.7567 23.4154 23.6456 23.4323 23.5356 23.4504C23.625 22.7147 23.7639 22.3451 23.7796 22.3052L23.8171 22.2243L23.8268 22.1457C23.8666 21.9102 23.8014 21.6746 23.6456 21.4801C23.3834 21.1552 22.9099 21.0223 22.5849 21.0066C22.5245 21.0042 22.4653 21.0042 22.4085 21.009L22.301 21.0174L22.2008 21.0585C21.7937 21.2252 21.4506 21.5321 21.1546 21.909C21.1341 21.8751 21.1099 21.8413 21.0845 21.8099C20.826 21.491 20.4262 21.3943 20.0396 21.3605C20.013 21.2554 19.9683 21.1539 19.9019 21.0597C20.4564 20.5693 20.919 19.7756 20.919 18.4721V14.6971C20.919 10.1585 20.9203 3.3006 20.919 3.07953V3.04209C20.919 2.879 20.919 2.60599 20.7765 2.35351C20.6545 2.13607 20.3863 1.87272 19.8053 1.85098C19.6736 1.84614 19.5274 1.84252 19.3704 1.83769C17.7782 1.79299 14.8137 1.71085 12.8446 0.266052C12.783 0.220147 12.7359 0.185115 12.6985 0.15733C12.5668 0.0582725 12.4883 -0.0021286 12.3361 -0.0021286C12.1838 -0.0021286 12.1041 0.0582725 11.9737 0.15733C11.9374 0.185115 11.8903 0.220147 11.8275 0.266052C9.85841 1.71205 6.89513 1.7942 5.30175 1.83769C5.14471 1.84252 4.99854 1.84614 4.86686 1.85098C4.2858 1.87272 4.01762 2.13607 3.89561 2.35351C3.75427 2.60478 3.75427 2.87779 3.75427 3.04209V3.07953C3.75186 3.29939 3.75427 10.1585 3.75427 14.6971V18.4721C3.75427 19.4168 3.99709 20.0945 4.34137 20.5826C3.95481 20.6224 3.21308 20.8326 2.33002 21.7543C1.424 22.7002 1.22468 23.4975 1.18119 23.7959C1.11475 24.2429 1.24884 24.7007 1.56172 25.0812C1.68735 25.2334 1.8601 25.3929 2.06063 25.5125C1.6354 25.8242 1.30199 26.1515 1.05435 26.4318C0.410471 27.1614 0.0178643 27.9575 -0.000256003 28.5603C-0.0256244 29.4639 0.623083 29.9677 1.27783 29.9979C1.3334 30.0003 1.38776 29.9991 1.44091 29.9955C2.39525 29.9194 3.29281 29.1535 3.87749 28.5253C4.29305 28.0783 4.67962 27.5649 5.01666 27.0177C5.04444 27.066 5.07343 27.1131 5.10605 27.1578C5.34886 27.4888 5.7161 27.6809 6.13891 27.7014C6.20535 27.705 6.273 27.7038 6.34186 27.6978C6.65232 27.6724 6.94828 27.519 7.24183 27.2243C7.46773 27.42 7.75403 27.5323 8.07174 27.5468C8.13818 27.5504 8.20583 27.5492 8.27469 27.5432C8.54287 27.5214 8.80139 27.403 9.05507 27.1844C9.26648 27.3197 9.50929 27.4006 9.74244 27.4115C10.0179 27.4248 10.2643 27.3342 10.437 27.1578C10.547 27.0455 10.6352 26.8957 10.7705 26.6263C10.7862 26.6492 10.8019 26.6722 10.8176 26.6951C11.0616 27.0298 11.43 27.2243 11.8541 27.2436C11.9193 27.2472 11.9869 27.246 12.0534 27.24C12.359 27.2158 12.6477 27.0696 12.9304 26.7942C13.1515 26.9742 13.4269 27.0781 13.7313 27.0926C13.7978 27.0962 13.8654 27.095 13.9343 27.089C14.2616 27.0624 14.5757 26.8908 14.8838 26.5683C15.1483 26.8063 15.4878 26.9452 15.8647 26.9621C15.9408 26.9657 16.0181 26.9645 16.0954 26.9585C16.819 26.9005 17.5378 26.3158 18.0633 25.376C18.1104 25.3591 18.1551 25.341 18.201 25.3192C18.2433 25.6152 18.3411 25.8701 18.4946 26.0803C18.7386 26.4149 19.107 26.6094 19.531 26.6287C19.5963 26.6323 19.6639 26.6311 19.7316 26.6251C19.9889 26.6045 20.2377 26.4946 20.4805 26.2917C20.7101 26.4173 20.9819 26.491 21.2851 26.5043C21.3926 26.5091 21.5049 26.5067 21.6209 26.4982C22.4206 26.4342 22.8628 25.9341 23.1019 25.4702C23.2542 25.4593 23.3919 25.4569 23.5139 25.463C23.654 25.469 23.7494 25.4859 23.8111 25.5004L23.7953 26.0766L24.5709 26.0138C24.8596 25.9909 25.0976 25.8048 25.2764 25.463C25.3634 25.2975 25.4672 25.0269 25.4685 24.6826C25.4733 23.9566 24.9405 23.425 24.1747 23.3888L24.1759 23.3912ZM7.76732 22.6591C7.53538 22.4707 7.20318 22.3487 6.81902 22.3306C6.73567 22.3269 6.6499 22.3281 6.56534 22.3354C6.50735 22.3402 6.45058 22.3511 6.39501 22.3668C6.37326 22.1904 6.3334 22.002 6.26937 21.8147C6.33582 21.8316 6.39622 21.8474 6.44816 21.8594C6.48319 21.8679 6.5146 21.8751 6.54239 21.8824C6.79728 21.9476 7.22371 22.0032 7.71779 22.0684C7.98114 22.1035 8.25899 22.1397 8.52596 22.1796C8.51992 22.1796 8.51267 22.1796 8.50663 22.1796C8.1853 22.2049 7.95094 22.4055 7.76732 22.6591Z" fill="#001635"/>
<path d="M24.8982 23.9913C24.7013 23.7932 24.4222 23.6881 24.0924 23.6881C24.032 23.6881 23.9704 23.6917 23.9076 23.699C23.6636 23.728 23.4232 23.7726 23.1997 23.8222C23.2879 22.7156 23.5041 22.1926 23.5065 22.1877L23.5246 22.1442L23.5331 22.0959C23.5585 21.9413 23.5138 21.7855 23.4051 21.6562C23.2094 21.4243 22.8107 21.3035 22.5184 21.3035C22.4894 21.3035 22.4616 21.3035 22.4338 21.3071L22.3722 21.3119L22.3154 21.3349C21.6727 21.5982 21.1944 22.2832 20.809 23.0273C20.9093 22.7978 20.9709 22.6516 20.989 22.5199C21.0192 22.3218 20.9685 22.1322 20.8453 21.986C20.6181 21.7178 20.211 21.6574 19.7749 21.6429C19.7749 21.4581 19.7327 21.3216 19.6445 21.2104C19.5853 21.1355 19.5068 21.0836 19.4198 21.0522C20.0407 20.6354 20.6181 19.884 20.6181 18.4706C20.6181 15.8384 20.6206 3.38004 20.6181 3.08166C20.6157 2.81348 20.658 2.18531 19.7955 2.1539C18.2625 2.09712 14.903 2.15269 12.6669 0.509784C12.4121 0.322541 12.4048 0.300797 12.3372 0.300797C12.2695 0.300797 12.2623 0.322541 12.0074 0.509784C9.77132 2.15149 6.41181 2.09712 4.87883 2.1539C4.01631 2.18531 4.05859 2.81469 4.05617 3.08166C4.05376 3.38004 4.05617 15.8396 4.05617 18.4706C4.05617 19.7958 4.56354 20.54 5.13856 20.9712C4.9646 20.9036 4.77132 20.8686 4.56475 20.8686C4.5128 20.8686 4.45844 20.871 4.40408 20.8746C3.18519 20.9725 1.64375 22.6975 1.47705 23.8379C1.42027 24.2136 1.54107 24.5989 1.81771 24.9191C2.06777 25.209 2.40239 25.3974 2.67057 25.3974C2.72372 25.3974 2.77084 25.3914 2.81191 25.3805C2.12092 25.7731 1.61476 26.2455 1.27893 26.6284C0.690625 27.2964 0.31493 28.0394 0.300434 28.5673C0.288353 28.9865 0.452644 29.245 0.591567 29.3887C0.783642 29.5856 1.05666 29.6992 1.34054 29.6992C1.36712 29.6992 1.39369 29.6992 1.41785 29.6956C2.70681 29.5929 4.19993 27.9741 5.09869 26.2684C5.13131 26.6127 5.24728 26.8881 5.44177 27.0887C5.63989 27.2928 5.90686 27.4003 6.21249 27.4003C6.24752 27.4003 6.28376 27.3991 6.3188 27.3955C6.62926 27.3701 6.93006 27.1684 7.24293 26.7698C7.28159 26.8289 7.32508 26.8833 7.3734 26.934C7.57151 27.1382 7.83849 27.2457 8.14412 27.2457C8.17915 27.2457 8.21539 27.2445 8.25042 27.2409C8.51256 27.2203 8.77108 27.0693 9.03322 26.7855C9.23738 26.9824 9.53213 27.1092 9.79307 27.1092C10.0141 27.1092 10.1482 27.0198 10.2231 26.9437C10.3318 26.8338 10.4273 26.6441 10.652 26.1887C10.7027 26.086 10.7571 25.9749 10.8163 25.8577C10.8658 26.2503 11.0204 26.4895 11.1557 26.6296C11.355 26.8338 11.6208 26.9425 11.9252 26.9425C11.959 26.9425 11.9941 26.9413 12.0291 26.9389C12.3275 26.9147 12.6247 26.7214 12.9255 26.3506C12.9581 26.3965 12.9943 26.44 13.033 26.4798C13.2311 26.684 13.4981 26.7915 13.8037 26.7915C13.8387 26.7915 13.875 26.7903 13.91 26.7867C14.235 26.7613 14.5563 26.5366 14.8825 26.1065C14.9272 26.173 14.9779 26.2358 15.0335 26.2926C15.2702 26.533 15.5867 26.661 15.9479 26.661C15.989 26.661 16.0301 26.6598 16.0724 26.6562C16.8225 26.5958 17.4676 25.8553 17.859 25.122C18.1055 25.0568 18.312 24.9227 18.4872 24.7463C18.4824 24.7983 18.4787 24.849 18.4775 24.8973C18.4606 25.5025 18.6612 25.8384 18.8327 26.0147C19.032 26.2189 19.2978 26.3276 19.6022 26.3276C19.6372 26.3276 19.6723 26.3264 19.7073 26.3228C19.9549 26.3035 20.199 26.1669 20.4466 25.9108C20.6471 26.0739 20.9491 26.2044 21.3985 26.2044C21.4626 26.2044 21.529 26.202 21.5966 26.1959C22.0243 26.1621 22.58 25.9531 22.9061 25.1824C23.0777 25.1655 23.2359 25.157 23.3785 25.157C23.9076 25.157 24.0876 25.2766 24.1142 25.3153L24.1021 25.749L24.5454 25.7127C24.8994 25.6837 25.1663 25.1425 25.1688 24.6775C25.17 24.4105 25.0733 24.164 24.897 23.9865L24.8982 23.9913ZM10.1796 22.346C9.9489 22.3641 9.6783 22.4644 9.59857 22.8099C9.59616 22.8074 9.59374 22.805 9.59133 22.8026C9.39321 22.5997 9.03926 22.4728 8.6684 22.4728C8.62249 22.4728 8.57659 22.4752 8.53068 22.4789C8.26492 22.5006 8.04385 22.7144 7.795 23.1964C7.77325 23.1239 7.73097 23.0418 7.65245 22.9597C7.45434 22.7555 7.10039 22.6287 6.72832 22.6287C6.68241 22.6287 6.63651 22.6311 6.5906 22.6347C6.49396 22.6419 6.33571 22.6552 6.12068 22.927C6.12189 22.886 6.1231 22.8473 6.1231 22.8074C6.12672 22.1611 5.9431 21.6187 5.60727 21.2805C5.59036 21.2636 5.57224 21.2479 5.55412 21.2322C5.99021 21.4545 6.40577 21.5366 6.61718 21.591C7.18374 21.7359 8.82786 21.8531 9.6469 22.0959C9.87763 22.1648 10.1132 22.2433 10.3536 22.346C10.3161 22.3436 10.2859 22.3436 10.269 22.3436C10.2352 22.3436 10.2062 22.3448 10.1808 22.3472L10.1796 22.346ZM15.414 22.7277C15.4164 22.6347 15.3898 22.4934 15.2533 22.352C15.1651 22.2614 15.0455 22.1865 14.9078 22.1309C14.9477 22.1189 14.9876 22.1068 15.0262 22.0947C15.4176 21.9787 15.9987 21.8906 16.5592 21.8157C16.1014 21.9473 15.7148 22.2989 15.414 22.7277ZM18.2396 22.6432C18.2323 22.6661 18.2251 22.6891 18.2178 22.7132C18.1671 22.5368 18.0898 22.3677 17.9762 22.2203C17.8155 22.0114 17.5159 21.7625 16.9965 21.7589C17.4398 21.7009 17.8324 21.6477 18.0571 21.591C18.1502 21.5668 18.2818 21.5378 18.4377 21.4943C18.3543 21.6272 18.2903 21.7915 18.2589 21.992C18.2347 22.1491 18.2553 22.2977 18.3132 22.4221C18.2891 22.4934 18.2649 22.5683 18.2408 22.6456L18.2396 22.6432Z" fill="white"/>
<path d="M24.8982 23.9913C24.7013 23.7932 24.4222 23.6881 24.0924 23.6881C24.032 23.6881 23.9704 23.6917 23.9076 23.699C23.6636 23.728 23.4232 23.7727 23.1997 23.8222C23.2879 22.7156 23.5041 22.1926 23.5065 22.1877L23.5246 22.1442L23.5331 22.0959C23.5585 21.9413 23.5138 21.7855 23.4051 21.6562C23.2094 21.4243 22.8107 21.3035 22.5184 21.3035C22.4894 21.3035 22.4616 21.3035 22.4338 21.3071L22.3722 21.3119L22.3154 21.3349C21.6727 21.5982 21.1944 22.2832 20.809 23.0273C20.9093 22.7978 20.9709 22.6516 20.989 22.5199C21.0192 22.3218 20.9685 22.1322 20.8453 21.986C20.6181 21.7178 20.211 21.6574 19.7749 21.6429C19.7749 21.4581 19.7327 21.3216 19.6445 21.2104C19.5466 21.0872 19.3993 21.0172 19.2386 21.0172C19.2241 21.0172 19.2084 21.0172 19.1927 21.0196C18.8267 21.0486 18.3616 21.3192 18.2577 21.9872C18.2335 22.1442 18.254 22.2928 18.312 22.4173C18.2879 22.4885 18.2637 22.5634 18.2396 22.6407C18.2323 22.6637 18.2251 22.6866 18.2178 22.7108C18.1671 22.5344 18.0898 22.3653 17.9762 22.2179C17.8143 22.0065 17.5111 21.7553 16.9832 21.7553C16.9373 21.7553 16.8902 21.7577 16.8431 21.7613C16.2596 21.8084 15.7764 22.2119 15.4152 22.7265C15.4176 22.6335 15.391 22.4922 15.2545 22.3508C15.0552 22.1454 14.7 22.0174 14.3256 22.0174C14.2809 22.0174 14.2362 22.021 14.1915 22.0222C14.0453 22.0271 13.7058 22.2614 13.486 22.677C13.4606 22.6178 13.422 22.5562 13.3616 22.4934C13.1659 22.2928 12.8143 22.1684 12.4423 22.1684C12.3951 22.1684 12.348 22.1708 12.3009 22.1744C12.0931 22.1914 11.8322 22.3025 11.3611 22.8968C11.3309 22.8087 11.2813 22.7277 11.2125 22.6576C10.9201 22.3569 10.3741 22.3411 10.2678 22.3411C10.234 22.3411 10.205 22.3424 10.1796 22.3448C9.9489 22.3629 9.6783 22.4632 9.59857 22.8087C9.59616 22.8062 9.59374 22.8038 9.59133 22.8014C9.39321 22.5985 9.03926 22.4716 8.6684 22.4716C8.62249 22.4716 8.57659 22.474 8.53068 22.4777C8.26492 22.4994 8.04385 22.7132 7.795 23.1952C7.77325 23.1227 7.73097 23.0406 7.65245 22.9584C7.45434 22.7543 7.10039 22.6274 6.72832 22.6274C6.68241 22.6274 6.63651 22.6299 6.5906 22.6335C6.49396 22.6407 6.33571 22.654 6.12068 22.9258C6.12189 22.8848 6.1231 22.8461 6.1231 22.8062C6.12672 22.1599 5.9431 21.6175 5.60727 21.2793C5.34151 21.0123 4.98152 20.871 4.56475 20.871C4.5128 20.871 4.45844 20.8734 4.40408 20.877C3.18519 20.9749 1.64375 22.6999 1.47705 23.8403C1.42027 24.216 1.54107 24.6014 1.81771 24.9215C2.06777 25.2114 2.40239 25.3999 2.67057 25.3999C2.72372 25.3999 2.77084 25.3938 2.81191 25.3829C2.12092 25.7756 1.61476 26.2479 1.27893 26.6308C0.690625 27.2989 0.31493 28.0418 0.300434 28.5697C0.288353 28.9889 0.452644 29.2474 0.591567 29.3912C0.783642 29.5881 1.05666 29.7016 1.34054 29.7016C1.36712 29.7016 1.39369 29.7016 1.41785 29.698C2.70681 29.5953 4.19993 27.9766 5.09869 26.2708C5.13131 26.6151 5.24728 26.8906 5.44177 27.0911C5.63989 27.2952 5.90686 27.4028 6.21249 27.4028C6.24752 27.4028 6.28376 27.4015 6.3188 27.3979C6.62926 27.3726 6.93006 27.1708 7.24293 26.7722C7.28159 26.8314 7.32508 26.8857 7.3734 26.9365C7.57151 27.1406 7.83849 27.2481 8.14412 27.2481C8.17915 27.2481 8.21539 27.2469 8.25042 27.2433C8.51256 27.2228 8.77108 27.0718 9.03322 26.7879C9.23738 26.9848 9.53213 27.1116 9.79307 27.1116C10.0141 27.1116 10.1482 27.0222 10.2231 26.9461C10.3318 26.8362 10.4273 26.6465 10.652 26.1911C10.7027 26.0884 10.7571 25.9773 10.8163 25.8601C10.8658 26.2527 11.0204 26.4919 11.1557 26.632C11.355 26.8362 11.6208 26.9449 11.9252 26.9449C11.959 26.9449 11.9941 26.9437 12.0291 26.9413C12.3275 26.9171 12.6247 26.7238 12.9255 26.353C12.9581 26.3989 12.9943 26.4424 13.033 26.4822C13.2311 26.6864 13.4981 26.7939 13.8037 26.7939C13.8387 26.7939 13.875 26.7927 13.91 26.7891C14.235 26.7637 14.5563 26.539 14.8825 26.109C14.9272 26.1754 14.9779 26.2382 15.0335 26.295C15.2702 26.5354 15.5867 26.6634 15.9479 26.6634C15.989 26.6634 16.0301 26.6622 16.0724 26.6586C16.8225 26.5982 17.4676 25.8577 17.859 25.1244C18.1055 25.0592 18.312 24.9251 18.4872 24.7487C18.4824 24.8007 18.4787 24.8514 18.4775 24.8997C18.4606 25.505 18.6612 25.8408 18.8327 26.0172C19.032 26.2213 19.2978 26.33 19.6022 26.33C19.6372 26.33 19.6723 26.3288 19.7073 26.3252C19.9549 26.3059 20.199 26.1694 20.4466 25.9133C20.6471 26.0763 20.9491 26.2068 21.3985 26.2068C21.4626 26.2068 21.529 26.2044 21.5966 26.1984C22.0243 26.1645 22.58 25.9555 22.9061 25.1848C23.0777 25.1679 23.2359 25.1595 23.3785 25.1595C23.9076 25.1595 24.0876 25.2791 24.1142 25.3177L24.1021 25.7514L24.5454 25.7152C24.8994 25.6862 25.1663 25.145 25.1688 24.6799C25.17 24.4129 25.0733 24.1665 24.897 23.9889L24.8982 23.9913Z" fill="white"/>
<path d="M5.21648 25.0568C5.51123 24.2994 5.72264 23.4489 5.72384 22.805C5.72747 22.0536 5.44479 21.1935 4.43609 21.2745C3.43585 21.3542 2.01884 22.8872 1.87146 23.8971C1.76637 24.5989 2.58782 25.1268 2.75453 24.9734C2.85117 24.8828 2.554 24.8321 2.62648 24.3561C2.77506 23.3209 4.25006 21.8495 4.6777 21.8157C5.13071 21.7794 4.77917 23.0539 4.6934 23.374C4.52186 23.9901 4.2718 24.7113 4.01691 25.2851C1.91616 25.9652 0.721428 27.793 0.699684 28.5794C0.682772 29.1665 1.13095 29.3211 1.38705 29.2994C2.59265 29.2027 4.24039 27.3544 5.06185 25.424C5.21648 25.395 5.36144 25.3757 5.50761 25.3636C5.6272 25.354 5.57163 24.913 5.21768 25.0568H5.21648ZM1.48127 28.6651C1.30128 28.6796 1.29645 28.5564 1.29886 28.49C1.31336 27.9935 2.39816 26.4049 3.71732 25.9121C2.93936 27.468 2.0116 28.6229 1.48127 28.6664V28.6651ZM14.6813 21.2962C14.7441 20.8867 15.0872 20.2319 15.2008 20.116C15.359 19.9553 16.2759 20.1124 16.0476 20.3455C15.9075 20.4893 15.3566 21.5559 15.3131 21.5922C15.1911 21.6924 14.639 21.597 14.6813 21.2962ZM24.7719 24.6799C24.7743 24.2921 24.4663 24.036 23.9517 24.094C23.5325 24.1435 23.1206 24.2426 22.7328 24.3477C22.763 24.181 22.7847 24.0058 22.798 23.8222C22.8922 22.5936 23.1387 22.0283 23.1387 22.0283C23.1701 21.8447 22.7388 21.6804 22.4658 21.7033C21.7386 22.0017 21.2143 23.0575 20.87 23.8186C20.5136 24.4745 20.08 25.2779 19.8819 25.2936C19.848 25.296 19.7792 25.2936 19.7852 25.087C19.7937 24.7644 19.9012 24.3187 20.0401 23.8862C20.2648 23.1831 20.5704 22.6468 20.5922 22.4644C20.6647 22.021 19.8964 22.0416 19.3153 22.0379C19.4216 21.5837 19.3757 21.4061 19.2223 21.4182C18.8635 21.4472 18.692 21.7818 18.6497 22.05C18.6291 22.1841 18.6678 22.2965 18.7608 22.346C18.5591 22.8328 18.396 23.8113 17.7859 24.2317C17.9865 23.49 18.0517 22.0645 16.8715 22.1587C16.1515 22.2167 15.5209 23.072 15.2165 24.0203C14.8432 24.7004 14.308 25.7393 14.0834 25.7562C14.0495 25.7586 13.9807 25.7647 13.9867 25.5497C14.0109 24.6726 14.7321 23.0056 14.9423 22.7905C14.9773 22.7543 15.0111 22.7772 15.0123 22.7193C15.0159 22.6033 14.6801 22.3834 14.2186 22.4197C13.971 22.439 13.5542 23.3535 13.2981 24.2305C12.9273 24.9094 12.4199 25.8891 12.2013 25.9072C12.1674 25.9096 12.0986 25.9072 12.1046 25.7007C12.13 24.8236 12.85 23.1566 13.0529 22.9427C13.0964 22.8981 13.1218 22.921 13.123 22.8715C13.1266 22.747 12.8004 22.5344 12.3293 22.5719C11.8594 22.6093 10.6695 24.57 10.1537 25.6016C10.4122 24.5905 10.986 23.2822 10.992 23.0998C11.0005 22.7942 10.3965 22.7265 10.2092 22.741C10.0208 22.7567 9.97608 22.8256 9.97125 23.008C9.96521 23.2097 9.75743 23.8306 9.55086 24.483C9.17879 25.1631 8.64605 26.1923 8.42256 26.2104C8.3972 26.2129 8.31988 26.2104 8.32592 26.0039C8.35008 25.1268 9.07127 23.4598 9.28267 23.2448C9.31771 23.2085 9.35153 23.223 9.35274 23.1735C9.35516 23.0575 9.02899 22.8364 8.55907 22.8739C8.33679 22.892 7.95627 23.6736 7.70379 24.4854C7.32689 25.151 6.73013 26.3457 6.49094 26.3651C6.45711 26.3675 6.38826 26.3651 6.3943 26.1585C6.41966 25.2815 7.13119 23.6156 7.34259 23.4006C7.38608 23.3643 7.41145 23.3788 7.41266 23.3293C7.41628 23.2133 7.08891 22.9923 6.61899 23.0297C6.26021 23.0587 5.51244 25.0749 5.48586 25.9918C5.46533 26.7275 5.81445 27.0379 6.28557 27.0005C6.66127 26.9703 7.07924 26.3844 7.42111 25.7381L7.4187 25.8372C7.39816 26.5741 7.74728 26.8833 8.2172 26.8459C8.52525 26.8217 8.86349 26.4291 9.15946 25.9374C9.14979 26.0051 9.14375 26.0667 9.14134 26.1198C9.12805 26.5825 9.78763 26.8193 9.93621 26.6671C10.1295 26.4702 10.7637 24.8261 11.6129 23.7763C11.3907 24.3875 11.2095 25.087 11.1974 25.5255C11.1769 26.2624 11.526 26.5801 11.9959 26.5427C12.351 26.5137 12.7509 25.9858 13.0771 25.3842C13.0565 26.1198 13.4069 26.4291 13.8768 26.3916C14.2585 26.3614 14.6862 25.7671 15.022 25.1208C15.0087 25.906 15.446 26.3071 16.0391 26.26C16.6202 26.2129 17.2194 25.546 17.5914 24.7657C18.5409 24.6895 18.855 23.2037 19.1329 22.4475C19.3117 22.4583 19.5158 22.4994 19.5738 22.5695C19.6064 22.6166 19.3515 23.1807 19.1111 23.8282C18.9638 24.2281 18.884 24.6304 18.8756 24.9118C18.855 25.6475 19.2042 25.9664 19.6741 25.929C19.9278 25.9084 20.2044 25.633 20.4605 25.2585C20.5704 25.5968 20.9063 25.8553 21.5634 25.8021C22.1276 25.7574 22.4465 25.36 22.6156 24.8188C22.6845 24.8055 22.7521 24.7995 22.821 24.7946C24.4808 24.6207 24.5158 25.2114 24.5122 25.3189C24.5545 25.3153 24.7671 25.0592 24.7695 24.6787L24.7719 24.6799ZM16.9041 24.4431L16.7507 24.4552C16.4511 24.4794 16.3339 25.0085 16.6673 24.9819C16.468 25.3769 16.2385 25.6765 16.0416 25.6922C15.3832 25.7454 16.4801 22.8268 17.0708 22.7797C17.3535 22.7567 17.1904 23.6857 16.9041 24.4431ZM21.3254 25.2863C21.1201 25.3032 21.0041 25.1715 20.9316 25.029C21.1189 25.0471 21.1454 25.0121 21.7023 24.9348C21.6202 25.1389 21.5054 25.273 21.3254 25.2863ZM21.8062 24.5965C21.4801 24.6714 21.1889 24.7113 20.9256 24.6835C21.195 24.1834 21.5683 23.3692 22.0297 22.7543C21.9005 23.1107 21.927 23.9756 21.8074 24.5965H21.8062Z" fill="#001635"/>
<path d="M18.1495 11.2237L13.3356 11.4098L8.86107 16.1996L8.88161 14.1689L5.09325 15.7647L7.46701 11.4581L4.41797 11.8157C4.41797 12.8207 4.41797 13.8041 4.41797 14.698V18.4731C4.41797 20.6837 5.94974 21.0546 6.60449 21.2129C6.64194 21.2225 6.67697 21.2298 6.70717 21.2382C6.9234 21.2938 7.35104 21.3494 7.80405 21.4086C8.48054 21.4967 9.24643 21.597 9.75017 21.7468C10.3022 21.9111 10.9292 22.1467 11.5803 22.6407C11.9174 22.2711 12.1288 22.1901 12.3015 22.1756C12.3486 22.172 12.3957 22.1696 12.4429 22.1696C12.798 22.1696 13.1338 22.2844 13.3332 22.4704C13.7668 22.1793 14.186 21.9944 14.5762 21.8579C14.5243 21.8229 14.476 21.7818 14.4337 21.7335C14.3129 21.5946 14.2609 21.4194 14.2863 21.2346C14.36 20.7562 14.7296 20.0242 14.9157 19.8357C15.0377 19.7113 15.2201 19.6509 15.4738 19.6509C15.5547 19.6509 16.2662 19.663 16.4438 20.087C16.5187 20.267 16.4776 20.4699 16.3363 20.6185C16.2602 20.7127 16.0053 21.1766 15.8809 21.4001C15.8458 21.4629 15.8169 21.5161 15.7915 21.562C16.1418 21.504 16.5163 21.4557 16.8678 21.4086C17.3208 21.3494 17.7497 21.2938 17.9647 21.2382C17.9949 21.231 18.0287 21.2225 18.0674 21.2129C18.7209 21.0546 20.2539 20.6837 20.2539 18.4731V14.698C20.2539 12.8449 20.2539 10.6064 20.2539 8.59024L18.1471 11.2237H18.1495Z" fill="#E30613"/>
<path d="M6.78855 8.33897L5.36671 7.29041L8.57401 5.28509L11.8647 1.777L12.2706 3.24112L13.0473 2.0488L13.3396 4.60015L15.2821 5.47355L16.5578 6.88814L20.2556 8.04301C20.2556 5.36724 20.2556 3.20488 20.2556 3.08408V3.0418C20.2556 2.71684 20.2338 2.53201 19.782 2.5151C19.6516 2.51027 19.5078 2.50664 19.3532 2.50181C17.6885 2.45591 14.5887 2.36893 12.453 0.800918C12.4071 0.767094 12.3696 0.739309 12.3382 0.715149C12.3068 0.739309 12.2681 0.767094 12.2234 0.800918C10.0877 2.36893 6.98787 2.4547 5.32322 2.50181C5.16859 2.50664 5.02484 2.51027 4.89437 2.5151C4.44257 2.53201 4.42083 2.71684 4.42083 3.0418V3.08408C4.41962 3.2532 4.41962 7.41242 4.42083 11.388L6.79217 8.33656L6.78855 8.33897Z" fill="#00305B"/>
<path d="M12.4583 9.7584L6.04492 15.0048L9.2039 13.6748L9.19544 15.308L13.1819 11.0836L17.9874 10.8976L19.9927 8.4332L17.6552 9.57357L12.4583 9.7584Z" fill="#009FE3"/>
<path d="M14.5575 6.93163L14.5442 6.93283V6.93163L13.1719 7.06692L13.73 7.24813L14.7737 7.56342L14.5985 7.08142L14.5575 6.93163Z" fill="#E30613"/>
<path d="M12.781 6.96424L12.7689 6.96062L13.4345 6.87364L14.6449 6.75284L14.9457 7.58033L16.3132 7.0488L15.0931 5.69582L13.0504 4.77652L12.8365 2.91012L12.1552 3.95627L11.7119 2.36047L8.77516 5.49166L5.90974 7.28316L7.21803 8.24716L4.84668 11.2672L10.255 6.96424H12.781Z" fill="#001635"/>
<path d="M12.7431 16.0232L12.8023 15.9217C12.8156 15.8988 12.8434 15.8988 12.8579 15.9096C12.8664 15.9145 12.9992 16.0111 13.1055 16.0111C13.1913 16.0111 13.2553 15.9555 13.2553 15.8855C13.2553 15.8021 13.1853 15.7441 13.0464 15.6886C12.8917 15.6258 12.7371 15.5279 12.7371 15.3346C12.7371 15.1885 12.8458 15.0205 13.1068 15.0205C13.2747 15.0205 13.4027 15.1063 13.4353 15.1305C13.4523 15.1401 13.4571 15.1679 13.445 15.1848L13.3822 15.2778C13.3689 15.2972 13.3447 15.3105 13.3242 15.2972C13.3109 15.2887 13.1865 15.2066 13.0959 15.2066C13.0053 15.2066 12.9509 15.2694 12.9509 15.3213C12.9509 15.3986 13.0113 15.4506 13.1442 15.505C13.3037 15.569 13.4873 15.6644 13.4873 15.8758C13.4873 16.0449 13.3411 16.2008 13.1092 16.2008C12.9026 16.2008 12.7806 16.1041 12.748 16.0727C12.7335 16.0582 12.725 16.0498 12.7395 16.0232H12.7431ZM13.8642 15.0677C13.8642 15.0507 13.8775 15.0362 13.8956 15.0362H14.5636C14.5817 15.0362 14.595 15.0507 14.595 15.0677V15.2017C14.595 15.2187 14.5817 15.2332 14.5636 15.2332H14.078V15.5025H14.4839C14.5008 15.5025 14.5153 15.517 14.5153 15.5339V15.6705C14.5153 15.6886 14.5008 15.7019 14.4839 15.7019H14.078V15.9882H14.5636C14.5817 15.9882 14.595 16.0027 14.595 16.0196V16.1537C14.595 16.1706 14.5817 16.1851 14.5636 16.1851H13.8956C13.8775 16.1851 13.8642 16.1706 13.8642 16.1537V15.0689V15.0677ZM14.9949 15.0677C14.9949 15.0507 15.0082 15.0362 15.0263 15.0362H15.1773C15.1942 15.0362 15.2087 15.0507 15.2087 15.0677V15.987H15.6279C15.646 15.987 15.6593 16.0015 15.6593 16.0184V16.1525C15.6593 16.1694 15.646 16.1839 15.6279 16.1839H15.0263C15.0082 16.1839 14.9949 16.1694 14.9949 16.1525V15.0677ZM15.9891 15.0677C15.9891 15.0507 16.0024 15.0362 16.0205 15.0362H16.3962C16.5919 15.0362 16.7429 15.1679 16.7429 15.3395C16.7429 15.4651 16.639 15.5641 16.5617 15.6004C16.6487 15.6282 16.7755 15.7164 16.7755 15.8674C16.7755 16.051 16.6173 16.1839 16.4179 16.1839H16.0205C16.0024 16.1839 15.9891 16.1694 15.9891 16.1525V15.0677ZM16.3769 15.5182C16.4602 15.5182 16.5182 15.453 16.5182 15.3709C16.5182 15.2887 16.4602 15.2319 16.3769 15.2319H16.2005V15.5182H16.3769ZM16.3998 15.9906C16.482 15.9906 16.5472 15.9266 16.5472 15.842C16.5472 15.7574 16.4651 15.6994 16.3793 15.6994H16.2005V15.9906H16.3998ZM17.1669 15.0677C17.1669 15.0507 17.1802 15.0362 17.1983 15.0362H17.8664C17.8845 15.0362 17.8978 15.0507 17.8978 15.0677V15.2017C17.8978 15.2187 17.8845 15.2332 17.8664 15.2332H17.3807V15.5025H17.7866C17.8035 15.5025 17.818 15.517 17.818 15.5339V15.6705C17.818 15.6886 17.8035 15.7019 17.7866 15.7019H17.3807V15.9882H17.8664C17.8845 15.9882 17.8978 16.0027 17.8978 16.0196V16.1537C17.8978 16.1706 17.8845 16.1851 17.8664 16.1851H17.1983C17.1802 16.1851 17.1669 16.1706 17.1669 16.1537V15.0689V15.0677ZM18.2964 15.0677C18.2964 15.0507 18.3097 15.0362 18.3278 15.0362H18.7977C18.9947 15.0362 19.1553 15.1933 19.1553 15.389C19.1553 15.54 19.0551 15.6632 18.9125 15.72L19.1372 16.1368C19.1493 16.1585 19.1372 16.1839 19.1094 16.1839H18.9367C18.9222 16.1839 18.9137 16.1754 18.9101 16.1694L18.6914 15.7357H18.509V16.1537C18.509 16.1706 18.4945 16.1851 18.4776 16.1851H18.3266C18.3085 16.1851 18.2952 16.1706 18.2952 16.1537V15.0689L18.2964 15.0677ZM18.7796 15.5593C18.8666 15.5593 18.9427 15.4844 18.9427 15.3926C18.9427 15.3056 18.8666 15.2332 18.7796 15.2332H18.5114V15.5593H18.7796ZM5.3271 16.8749C5.31019 16.8157 5.34401 16.7734 5.4032 16.7734H5.8997C5.93352 16.7734 5.96735 16.8036 5.97581 16.8326L6.34063 18.2701H6.35754L7.01591 16.7782C7.0292 16.7528 7.05457 16.7311 7.08839 16.7311H7.1645C7.20316 16.7311 7.22852 16.7528 7.23698 16.7782L7.89535 18.2701H7.91226L8.27709 16.8326C8.28554 16.8024 8.31937 16.7734 8.35319 16.7734H8.84969C8.90888 16.7734 8.94271 16.8157 8.92579 16.8749L8.12246 19.7234C8.114 19.7572 8.08018 19.7826 8.04635 19.7826H7.97871C7.9485 19.7826 7.91951 19.7608 7.90622 19.7354L7.12826 18.0019H7.11497L6.34184 19.7354C6.32855 19.7608 6.29956 19.7826 6.26935 19.7826H6.20171C6.16788 19.7826 6.13406 19.7572 6.1256 19.7234L5.32227 16.8749H5.3271ZM10.6847 16.7311C11.5339 16.7311 12.214 17.4136 12.214 18.2617C12.214 19.1097 11.5339 19.7838 10.6847 19.7838C9.83543 19.7838 9.15894 19.1097 9.15894 18.2617C9.15894 17.4136 9.83423 16.7311 10.6847 16.7311ZM9.82214 16.1839C9.82214 16.0184 9.95382 15.8867 10.1193 15.8867C10.2848 15.8867 10.4213 16.0184 10.4213 16.1839C10.4213 16.3494 10.2848 16.4847 10.1193 16.4847C9.95382 16.4847 9.82214 16.3494 9.82214 16.1839ZM10.6847 19.1049C11.1522 19.1049 11.5339 18.7231 11.5339 18.2617C11.5339 17.8002 11.151 17.41 10.6847 17.41C10.2184 17.41 9.83906 17.7954 9.83906 18.2617C9.83906 18.728 10.222 19.1049 10.6847 19.1049ZM10.948 16.1839C10.948 16.0184 11.0797 15.8867 11.2452 15.8867C11.4107 15.8867 11.5472 16.0184 11.5472 16.1839C11.5472 16.3494 11.4107 16.4847 11.2452 16.4847C11.0797 16.4847 10.948 16.3494 10.948 16.1839ZM12.7286 16.8543C12.7286 16.812 12.7625 16.7734 12.8096 16.7734H13.3157C13.358 16.7734 13.3967 16.812 13.3967 16.8543V19.1181H14.4078C14.4549 19.1181 14.4887 19.1568 14.4887 19.1991V19.6605C14.4887 19.7028 14.4549 19.7415 14.4078 19.7415H12.8108C12.7637 19.7415 12.7299 19.7028 12.7299 19.6605V16.8543H12.7286ZM14.8995 16.8543C14.8995 16.812 14.9333 16.7734 14.9804 16.7734H16.7393C16.7864 16.7734 16.8202 16.812 16.8202 16.8543V17.3158C16.8202 17.3581 16.7864 17.3967 16.7393 17.3967H15.5627V18.0068H16.5315C16.5738 18.0068 16.6124 18.0454 16.6124 18.0877V18.5492C16.6124 18.5915 16.5738 18.6301 16.5315 18.6301H15.5627V19.6605C15.5627 19.7028 15.524 19.7415 15.4817 19.7415H14.9804C14.9333 19.7415 14.8995 19.7028 14.8995 19.6605V16.8543ZM17.2913 16.8543C17.2913 16.812 17.3252 16.7734 17.3723 16.7734H19.1312C19.1783 16.7734 19.2121 16.812 19.2121 16.8543V17.3158C19.2121 17.3581 19.1783 17.3967 19.1312 17.3967H17.9545V17.9222H18.9234C18.9657 17.9222 19.0043 17.9609 19.0043 18.0031V18.4646C19.0043 18.5117 18.9657 18.5455 18.9234 18.5455H17.9545V19.1181H19.1312C19.1783 19.1181 19.2121 19.1568 19.2121 19.1991V19.6605C19.2121 19.7028 19.1783 19.7415 19.1312 19.7415H17.3723C17.3252 19.7415 17.2913 19.7028 17.2913 19.6605V16.8543Z" fill="white"/>
</g>
<defs>
<clipPath id="clip0_7_462">
<rect width="25.4699" height="30" fill="white"/>
</clipPath>
</defs>
</svg>
