<svg width="34" height="30" viewBox="0 0 34 30" fill="none" xmlns="http://www.w3.org/2000/svg">
<g clip-path="url(#clip0_7_493)">
<path d="M17.817 23.3243V17.0018H11.4946V4.45652L11.4221 4.375C5 5.09058 0 10.5344 0 17.1467C0 24.2482 5.75181 30 12.8533 30C17.7083 30 21.9384 27.3007 24.1214 23.3333H17.817V23.3243Z" fill="#98989A"/>
<path d="M33.6231 0.48913H31.0234V3.08877H33.6231V0.48913Z" fill="#93D500"/>
<path d="M30.3712 4.73732H26.3857V8.72283H30.3712V4.73732Z" fill="#00263E"/>
<path d="M31.2136 12.6812H26.3857V17.5181H31.2136V12.6812Z" fill="#93D500"/>
<path d="M24.4746 0H19.7373V4.73732H24.4746V0Z" fill="#00263E"/>
<path d="M17.8169 4.375H11.4854V10.7065H17.8169V4.375Z" fill="#0082CA"/>
<path d="M17.8075 10.6884H11.4941V17.0018H17.8075V10.6884Z" fill="#EA0029"/>
<path d="M24.1208 10.6975H17.8164V17.0018H24.1208V10.6975Z" fill="#0082CA"/>
<path d="M24.1208 17.0018H17.8164V23.3243H24.1208V17.0018Z" fill="#EA0029"/>
</g>
<defs>
<clipPath id="clip0_7_493">
<rect width="33.6232" height="30" fill="white"/>
</clipPath>
</defs>
</svg>
