<svg width="34" height="30" viewBox="0 0 34 30" fill="none" xmlns="http://www.w3.org/2000/svg">
<g clip-path="url(#clip0_7_507)">
<path d="M17.817 23.3243V17.0018H11.4946V4.45652L11.4221 4.375C5 5.09058 0 10.5344 0 17.1467C0 24.2482 5.75181 30 12.8533 30C17.7083 30 21.9384 27.3007 24.1214 23.3333H17.817V23.3243Z" fill="white"/>
<path opacity="0.3" d="M33.6231 0.489128H31.0234V3.08877H33.6231V0.489128Z" fill="white"/>
<path opacity="0.3" d="M31.2136 12.6812H26.3857V17.5181H31.2136V12.6812Z" fill="white"/>
<path opacity="0.2" d="M24.4746 0H19.7373V4.73732H24.4746V0Z" fill="white"/>
<path opacity="0.5" d="M17.8169 4.375H11.4854V10.7065H17.8169V4.375Z" fill="white"/>
<path opacity="0.7" d="M17.8075 10.6884H11.4941V17.0018H17.8075V10.6884Z" fill="white"/>
<path opacity="0.5" d="M24.1217 10.6975H17.8174V17.0018H24.1217V10.6975Z" fill="white"/>
<path opacity="0.7" d="M24.1217 17.0018H17.8174V23.3243H24.1217V17.0018Z" fill="white"/>
</g>
<defs>
<clipPath id="clip0_7_507">
<rect width="33.6232" height="30" fill="white"/>
</clipPath>
</defs>
</svg>
